<?xml version="1.0" standalone="no"?>
<!DOCTYPE svg PUBLIC "-//W3C//DTD SVG 20010904//EN"
 "http://www.w3.org/TR/2001/REC-SVG-20010904/DTD/svg10.dtd">
<svg version="1.0" xmlns="http://www.w3.org/2000/svg"
 width="128.000000pt" height="128.000000pt" viewBox="0 0 128.000000 128.000000"
 preserveAspectRatio="xMidYMid meet">

<g transform="translate(0.000000,128.000000) scale(0.100000,-0.100000)"
fill="#000000" stroke="none">
<path d="M873 1248 c-27 -29 -83 -119 -83 -132 0 -5 14 12 31 40 40 62 36 59
54 44 13 -11 20 -11 41 0 23 13 32 11 100 -23 51 -26 73 -41 68 -50 -5 -6 -21
-30 -36 -51 -15 -21 -28 -44 -28 -49 0 -6 14 11 31 37 31 45 32 46 55 31 22
-14 25 -14 44 5 12 12 20 31 18 43 -2 17 -9 22 -32 20 -33 -2 -184 70 -193 92
-8 22 -47 18 -70 -7z"/>
<path d="M741 1014 c-28 -74 -20 -82 9 -9 12 31 20 58 18 61 -3 2 -15 -21 -27
-52z"/>
<path d="M996 993 c-6 -14 -5 -15 5 -6 7 7 10 15 7 18 -3 3 -9 -2 -12 -12z"/>
<path d="M965 930 c-10 -22 -16 -43 -13 -46 3 -2 13 14 22 37 22 54 15 61 -9
9z"/>
<path d="M661 834 c-12 -26 -20 -49 -17 -52 3 -2 15 17 26 43 27 62 20 68 -9
9z"/>
<path d="M925 840 c-17 -33 -19 -44 -6 -36 10 6 33 66 26 66 -3 0 -11 -13 -20
-30z"/>
<path d="M878 731 c-9 -22 -15 -41 -12 -41 8 0 35 62 32 72 -2 6 -11 -8 -20
-31z"/>
<path d="M616 735 c-3 -8 -1 -15 4 -15 6 0 10 7 10 15 0 8 -2 15 -4 15 -2 0
-6 -7 -10 -15z"/>
<path d="M586 664 c-25 -61 -16 -64 11 -3 12 27 19 49 15 49 -4 0 -15 -21 -26
-46z"/>
<path d="M845 660 c-4 -12 -5 -24 -2 -27 3 -2 8 5 12 17 4 12 5 24 2 27 -3 2
-8 -5 -12 -17z"/>
<path d="M820 600 c-6 -11 -8 -20 -6 -20 3 0 10 9 16 20 6 11 8 20 6 20 -3 0
-10 -9 -16 -20z"/>
<path d="M805 559 c-4 -6 -5 -12 -2 -15 2 -3 7 2 10 11 7 17 1 20 -8 4z"/>
<path d="M726 395 c-3 -8 -1 -15 4 -15 6 0 10 7 10 15 0 8 -2 15 -4 15 -2 0
-6 -7 -10 -15z"/>
<path d="M710 335 c7 -8 9 -22 6 -31 -6 -15 -8 -15 -26 1 -26 23 -36 13 -24
-23 7 -19 17 -28 37 -30 36 -4 57 13 57 47 0 32 -16 51 -43 51 -16 0 -17 -3
-7 -15z"/>
<path d="M170 301 c0 -6 5 -13 11 -16 6 -4 8 -13 5 -20 -4 -12 11 -35 25 -35
16 0 18 35 4 56 -15 24 -45 33 -45 15z"/>
<path d="M125 270 c-12 -19 24 -60 50 -60 33 0 31 10 -6 43 -35 31 -35 31 -44
17z"/>
<path d="M890 163 c0 -3 7 -14 16 -24 9 -10 13 -23 9 -28 -9 -16 -35 -13 -41
4 -9 23 -34 18 -34 -7 0 -48 45 -76 88 -56 38 18 44 79 10 102 -23 16 -48 21
-48 9z"/>
<path d="M360 123 c0 -3 8 -15 17 -25 11 -12 13 -22 6 -29 -11 -11 -43 -2 -43
12 0 5 -7 9 -15 9 -21 0 -19 -43 3 -63 23 -21 66 -22 86 -1 22 21 20 67 -2 87
-18 17 -52 23 -52 10z"/>
</g>
</svg>
