<?xml version="1.0" standalone="no"?>
<!DOCTYPE svg PUBLIC "-//W3C//DTD SVG 20010904//EN"
 "http://www.w3.org/TR/2001/REC-SVG-20010904/DTD/svg10.dtd">
<svg version="1.0" xmlns="http://www.w3.org/2000/svg"
 width="128.000000pt" height="128.000000pt" viewBox="0 0 128.000000 128.000000"
 preserveAspectRatio="xMidYMid meet">

<g transform="translate(0.000000,128.000000) scale(0.100000,-0.100000)"
fill="#000000" stroke="none">
<path d="M49 773 c-1 -504 2 -667 13 -680 6 -7 22 -13 35 -13 47 0 1068 162
1077 171 5 5 7 12 3 15 -4 4 -243 -30 -532 -76 -289 -46 -528 -81 -530 -78 -6
5 11 477 24 674 4 68 12 128 17 133 5 5 214 33 464 61 545 61 520 57 520 81 0
18 -17 19 -545 19 l-545 0 -1 -307z"/>
<path d="M857 860 c-39 -12 -92 -54 -114 -90 -9 -17 -20 -30 -23 -30 -3 0 -14
13 -24 29 -77 115 -251 63 -301 -90 -18 -53 -17 -52 -171 -65 l-81 -7 -7 -75
c-3 -41 -6 -99 -6 -129 l0 -54 33 5 c51 8 194 24 282 32 94 8 102 11 78 30
-10 8 5 4 32 -10 28 -13 70 -45 94 -71 l43 -47 16 24 c22 34 122 130 162 157
l35 23 -35 -31 c-19 -17 -30 -31 -25 -31 25 0 348 40 352 44 4 4 17 91 27 192
l7 60 -58 -7 c-32 -4 -75 -8 -95 -8 -34 -1 -38 1 -43 33 -10 51 -42 96 -80
112 -38 16 -56 16 -98 4z m93 -333 c0 -2 -10 -12 -22 -23 l-23 -19 19 23 c18
21 26 27 26 19z m-515 -47 c10 -11 16 -20 13 -20 -3 0 -13 9 -23 20 -10 11
-16 20 -13 20 3 0 13 -9 23 -20z"/>
</g>
</svg>
